# xmcd
#
# Track frame offsets: 
#        150
#        18159
#        35073
#        50969
#
# Disc length: 920 seconds
#
# Revision: 1
# Processed by: cddbd v1.5.2PL0 Copyright (c) Steve Scherf et al.
# Submitted via: ExactAudioCopy v0.99pb4
#
DISCID=31039604
DTITLE=Old 97's and Funland - Stoned | Garage Sale
DYEAR=1995
DGENRE=Rock
TTITLE0=Old 97's - Stoned
TTITLE1=Old 97's - Garage Sale
TTITLE2=Funland - Garage Sale
TTITLE3=Funland - Stoned
EXTD=
EXTT0=Old 97's
EXTT1=Funland
EXTT2=Funland
EXTT3=Old 97's
PLAYORDER=
